<?xml version="1.0"?>
<svg xmlns="http://www.w3.org/2000/svg" xmlns:xlink="http://www.w3.org/1999/xlink" width="650.890869pt" height="150.846405pt" viewBox="0 0 650.890869 150.846405" version="1.2">
<defs>
<clipPath id="clip1">
  <path d="M 0.277344 0 L 650.503906 0 L 650.503906 150.691406 L 0.277344 150.691406 Z M 0.277344 0 "></path>
</clipPath>
<filter id="alpha" filterUnits="objectBoundingBox" x="0%" y="0%" width="100%" height="100%">
  <feColorMatrix type="matrix" in="SourceGraphic" values="0 0 0 0 1 0 0 0 0 1 0 0 0 0 1 0 0 0 1 0"></feColorMatrix>
</filter>
<clipPath id="clip3">
  <path d="M 180 33 L 650.503906 33 L 650.503906 120 L 180 120 Z M 180 33 "></path>
</clipPath>
<clipPath id="clip2">
  <rect x="0" y="0" width="651" height="151"></rect>
</clipPath>
<g id="surface7" clip-path="url(#clip2)">
<g clip-path="url(#clip3)" clip-rule="nonzero">
<path style=" stroke:none;fill-rule:nonzero;fill:rgb(0%,0%,0%);fill-opacity:1;" d="M 180.109375 33.300781 L 650.503906 33.300781 L 650.503906 119.886719 L 180.109375 119.886719 Z M 180.109375 33.300781 "></path>
</g>
</g>
<mask id="mask0">
  <g filter="url(#alpha)">
<use xlink:href="#surface7"></use>
  </g>
</mask>
<clipPath id="clip5">
  <path d="M 597 33 L 650.503906 33 L 650.503906 119 L 597 119 Z M 597 33 "></path>
</clipPath>
<clipPath id="clip4">
  <rect x="0" y="0" width="651" height="151"></rect>
</clipPath>
<g id="surface6" clip-path="url(#clip4)">
<path style=" stroke:none;fill-rule:nonzero;fill:rgb(100%,100%,100%);fill-opacity:1;" d="M 180.109375 118.296875 L 180.109375 35.214844 L 202.136719 35.214844 L 202.136719 44.46875 C 204.695312 40.855469 207.859375 38.089844 211.636719 36.175781 C 215.410156 34.265625 219.636719 33.300781 224.332031 33.300781 C 228.480469 33.414062 231.515625 34 233.429688 35.058594 L 233.429688 54.355469 C 231.726562 53.613281 229.945312 53.027344 228.082031 52.597656 C 226.222656 52.175781 224.277344 51.953125 222.261719 51.953125 C 218 51.953125 214.113281 53.050781 210.605469 55.226562 C 207.097656 57.40625 204.273438 60.46875 202.148438 64.394531 L 202.148438 118.296875 Z M 180.109375 118.296875 "></path>
<path style=" stroke:none;fill-rule:nonzero;fill:rgb(100%,100%,100%);fill-opacity:1;" d="M 282.765625 119.886719 C 274.464844 119.886719 266.9375 117.953125 260.171875 114.074219 C 253.410156 110.191406 248.0625 105.039062 244.132812 98.605469 C 240.195312 92.167969 238.222656 84.914062 238.222656 76.832031 C 238.222656 68.75 240.117188 61.609375 243.890625 55.0625 C 247.664062 48.527344 252.800781 43.339844 259.300781 39.515625 C 265.785156 35.691406 272.96875 33.777344 280.851562 33.777344 C 288.730469 33.777344 295.9375 35.722656 302.160156 39.59375 C 308.378906 43.472656 313.28125 48.757812 316.847656 55.460938 C 320.410156 62.160156 322.195312 69.8125 322.195312 78.425781 L 322.195312 84.164062 L 260.570312 84.164062 C 261.535156 87.457031 263.128906 90.433594 265.363281 93.097656 C 267.601562 95.75 270.3125 97.796875 273.511719 99.234375 C 276.699219 100.671875 280.164062 101.390625 283.882812 101.390625 C 287.601562 101.390625 290.914062 100.835938 294.101562 99.71875 C 297.289062 98.605469 300.011719 96.988281 302.246094 94.855469 L 316.613281 107.9375 C 311.5 112.082031 306.265625 115.113281 300.886719 117.023438 C 295.507812 118.9375 289.472656 119.898438 282.765625 119.898438 Z M 260.25 68.539062 L 300.796875 68.539062 C 299.945312 65.246094 298.539062 62.347656 296.570312 59.851562 C 294.597656 57.351562 292.230469 55.414062 289.460938 54.035156 C 286.695312 52.652344 283.71875 51.953125 280.519531 51.953125 C 277.109375 51.953125 274.019531 52.617188 271.253906 53.945312 C 268.484375 55.273438 266.171875 57.183594 264.3125 59.683594 C 262.453125 62.183594 261.09375 65.136719 260.238281 68.527344 Z M 260.25 68.539062 "></path>
<path style=" stroke:none;fill-rule:nonzero;fill:rgb(100%,100%,100%);fill-opacity:1;" d="M 452.6875 119.886719 C 444.386719 119.886719 436.882812 117.976562 430.171875 114.148438 C 423.464844 110.324219 418.140625 105.136719 414.210938 98.605469 C 410.269531 92.070312 408.300781 84.804688 408.300781 76.832031 C 408.300781 68.859375 410.269531 61.441406 414.210938 54.90625 C 418.152344 48.371094 423.476562 43.210938 430.171875 39.4375 C 436.882812 35.667969 444.386719 33.777344 452.6875 33.777344 C 460.988281 33.777344 468.496094 35.667969 475.191406 39.4375 C 481.898438 43.210938 487.210938 48.371094 491.152344 54.90625 C 495.09375 61.441406 497.0625 68.75 497.0625 76.832031 C 497.0625 84.914062 495.125 92.058594 491.242188 98.605469 C 487.355469 105.136719 482.066406 110.324219 475.355469 114.148438 C 468.648438 117.976562 461.089844 119.886719 452.6875 119.886719 Z M 452.6875 100.914062 C 457.050781 100.914062 460.988281 99.832031 464.5 97.640625 C 468.007812 95.464844 470.773438 92.566406 472.800781 88.953125 C 474.824219 85.335938 475.832031 81.246094 475.832031 76.679688 C 475.832031 72.113281 474.792969 68.175781 472.722656 64.558594 C 470.640625 60.945312 467.875 58.082031 464.421875 55.945312 C 460.957031 53.824219 457.105469 52.761719 452.84375 52.761719 C 448.582031 52.761719 444.539062 53.824219 441.03125 55.945312 C 437.523438 58.070312 434.753906 60.945312 432.730469 64.558594 C 430.703125 68.175781 429.695312 72.210938 429.695312 76.679688 C 429.695312 81.144531 430.703125 85.347656 432.730469 88.953125 C 434.753906 92.566406 437.488281 95.464844 440.953125 97.640625 C 444.40625 99.820312 448.328125 100.914062 452.6875 100.914062 Z M 452.6875 100.914062 "></path>
<path style=" stroke:none;fill-rule:nonzero;fill:rgb(100%,100%,100%);fill-opacity:1;" d="M 531.746094 118.296875 L 496.132812 35.214844 L 519.921875 35.214844 L 542.59375 90.554688 L 565.425781 35.214844 L 588.574219 35.214844 L 553.128906 118.296875 L 531.734375 118.296875 Z M 531.746094 118.296875 "></path>
<g clip-path="url(#clip5)" clip-rule="nonzero">
<path style=" stroke:none;fill-rule:nonzero;fill:rgb(100%,100%,100%);fill-opacity:1;" d="M 597.183594 118.296875 L 597.183594 35.214844 L 619.210938 35.214844 L 619.210938 44.46875 C 621.769531 40.855469 624.933594 38.089844 628.710938 36.175781 C 632.484375 34.265625 636.714844 33.300781 641.40625 33.300781 C 645.558594 33.414062 648.589844 34 650.503906 35.058594 L 650.503906 54.355469 C 648.800781 53.613281 647.019531 53.027344 645.160156 52.597656 C 643.300781 52.175781 641.351562 51.953125 639.335938 51.953125 C 635.074219 51.953125 631.1875 53.050781 627.679688 55.226562 C 624.171875 57.40625 621.347656 60.46875 619.222656 64.394531 L 619.222656 118.296875 Z M 597.183594 118.296875 "></path>
</g>
<path style=" stroke:none;fill-rule:nonzero;fill:rgb(100%,100%,100%);fill-opacity:1;" d="M 396.632812 91.460938 C 393.691406 94.589844 390.613281 96.945312 387.402344 98.527344 C 384.160156 100.117188 380.671875 100.914062 376.941406 100.914062 C 372.582031 100.914062 368.695312 99.851562 365.285156 97.730469 C 361.875 95.605469 359.164062 92.710938 357.140625 89.039062 C 355.113281 85.367188 354.105469 81.300781 354.105469 76.84375 C 354.105469 72.386719 355.070312 68.019531 356.984375 64.40625 C 358.898438 60.789062 361.554688 57.949219 364.964844 55.871094 C 368.375 53.789062 372.203125 52.761719 376.453125 52.761719 C 380.394531 52.761719 384.039062 53.558594 387.390625 55.152344 C 390.578125 56.664062 393.644531 59.007812 396.601562 62.171875 C 397.882812 57.261719 399.832031 52.605469 402.46875 48.230469 C 403.398438 46.691406 404.40625 45.234375 405.445312 43.804688 C 402.289062 41.230469 398.78125 39.097656 394.886719 37.449219 C 388.875 34.894531 382.507812 33.621094 375.8125 33.621094 C 367.722656 33.621094 360.382812 35.535156 353.785156 39.359375 C 347.1875 43.1875 341.972656 48.351562 338.144531 54.828125 C 334.316406 61.320312 332.398438 68.59375 332.398438 76.679688 C 332.398438 84.761719 334.335938 92.222656 338.222656 98.757812 C 342.105469 105.292969 347.320312 110.457031 353.863281 114.226562 C 360.40625 117.996094 367.722656 119.886719 375.8125 119.886719 C 382.410156 119.886719 388.632812 118.582031 394.488281 115.984375 C 398.394531 114.25 401.96875 112.027344 405.210938 109.363281 C 404.25 108.035156 403.320312 106.664062 402.457031 105.238281 C 399.832031 100.890625 397.894531 96.292969 396.613281 91.460938 Z M 396.632812 91.460938 "></path>
</g>
<clipPath id="clip6">
  <path d="M 0.277344 0 L 151 0 L 151 150.691406 L 0.277344 150.691406 Z M 0.277344 0 "></path>
</clipPath>
</defs>
<g id="surface1">
<g clip-path="url(#clip1)" clip-rule="nonzero">
<use xlink:href="#surface6" mask="url(#mask0)"></use>
</g>
<g clip-path="url(#clip6)" clip-rule="nonzero">
<path style=" stroke:none;fill-rule:nonzero;fill:rgb(29.019165%,16.470337%,64.31427%);fill-opacity:1;" d="M 75.621094 150.691406 C 117.234375 150.691406 150.96875 116.960938 150.96875 75.347656 C 150.96875 33.734375 117.234375 0 75.621094 0 C 34.011719 0 0.277344 33.734375 0.277344 75.347656 C 0.277344 116.960938 34.011719 150.691406 75.621094 150.691406 Z M 75.621094 150.691406 "></path>
</g>
<path style=" stroke:none;fill-rule:nonzero;fill:rgb(100%,100%,100%);fill-opacity:1;" d="M 59.167969 46.84375 L 74.691406 62.367188 C 71.914062 62.660156 69.21875 63.871094 67.089844 66 C 62.8125 70.277344 62.242188 76.863281 65.382812 81.757812 C 65.414062 81.800781 65.441406 81.847656 65.472656 81.890625 C 65.757812 82.332031 66.078125 82.753906 66.425781 83.164062 C 66.636719 83.410156 66.855469 83.648438 67.089844 83.882812 C 67.320312 84.113281 67.558594 84.332031 67.804688 84.542969 L 89.59375 106.332031 L 76.035156 119.890625 L 31.082031 74.933594 L 44.878906 61.136719 L 47.605469 63.847656 C 47.605469 63.847656 46.25 59.765625 51.167969 54.847656 "></path>
<path style=" stroke:none;fill-rule:nonzero;fill:rgb(100%,100%,100%);fill-opacity:1;" d="M 100.925781 94.988281 C 105.816406 90.085938 104.464844 86.011719 104.464844 86.011719 L 107.191406 88.722656 L 120.988281 74.925781 L 76.035156 29.972656 L 62.476562 43.53125 L 84.265625 65.316406 C 84.511719 65.527344 84.75 65.746094 84.984375 65.980469 C 85.214844 66.214844 85.433594 66.453125 85.644531 66.695312 C 86.519531 67.71875 87.199219 68.847656 87.683594 70.035156 C 87.703125 70.082031 87.722656 70.132812 87.742188 70.179688 C 89.59375 74.746094 88.667969 80.171875 84.96875 83.875 C 82.84375 85.996094 80.160156 87.207031 77.390625 87.503906 L 92.902344 103.015625 C 92.925781 103.007812 100.394531 95.523438 100.878906 95.039062 L 100.925781 94.992188 Z M 100.925781 94.988281 "></path>
</g>
</svg>